<svg xmlns="http://www.w3.org/2000/svg" xmlns:xlink="http://www.w3.org/1999/xlink" width="16" height="16" viewBox="0 0 16 16">
  <defs>
    <clipPath id="clip-path">
      <rect id="Rectangle_318" data-name="Rectangle 318" width="16" height="16" transform="translate(1308 35)" fill="#fff" stroke="#707070" stroke-width="1"/>
    </clipPath>
    <clipPath id="clip-icon-heart">
      <rect width="16" height="16"/>
    </clipPath>
  </defs>
  <g id="icon-heart" clip-path="url(#clip-icon-heart)">
    <g id="Mask_Group_117" data-name="Mask Group 117" transform="translate(-1308 -35)" clip-path="url(#clip-path)">
      <path id="Path_153" data-name="Path 153" d="M108.7,397.552a4.079,4.079,0,0,0-1.45-.915,4.352,4.352,0,0,0-1.75-.337,3.759,3.759,0,0,0-1.75.433,4.446,4.446,0,0,0-1.45,1.107c-.1.144-.2.241-.3.385a2.68,2.68,0,0,0-.3-.385,5.428,5.428,0,0,0-1.45-1.107,4.456,4.456,0,0,0-1.75-.433,5.368,5.368,0,0,0-1.75.337,5.616,5.616,0,0,0-1.45.915,4.37,4.37,0,0,0-1.3,3.081,4.84,4.84,0,0,0,.35,1.685,5.37,5.37,0,0,0,.95,1.4c.4.385,6.15,5.393,6.7,5.585.55-.241,6.25-5.2,6.7-5.585a4.371,4.371,0,0,0,1.3-3.082,4.841,4.841,0,0,0-.35-1.685A4.669,4.669,0,0,0,108.7,397.552Z" transform="translate(1214 -359.8)" fill="#b9bbbe"/>
    </g>
  </g>
</svg>
