<svg xmlns="http://www.w3.org/2000/svg" xmlns:xlink="http://www.w3.org/1999/xlink" width="40" height="40" viewBox="0 0 40 40">
  <defs>
    <clipPath id="clip-path">
      <rect id="Rectangle_317" data-name="Rectangle 317" width="40" height="40" transform="translate(1195 131)" fill="none" stroke="#707070" stroke-width="1"/>
    </clipPath>
    <clipPath id="clip-icon-event-gray">
      <rect width="40" height="40"/>
    </clipPath>
  </defs>
  <g id="icon-event-gray" clip-path="url(#clip-icon-event-gray)">
    <g id="Mask_Group_116" data-name="Mask Group 116" transform="translate(-1195 -131)" clip-path="url(#clip-path)">
      <g id="Group_396" data-name="Group 396">
        <rect id="Rectangle_306" data-name="Rectangle 306" width="32" height="29" rx="4" transform="translate(1199 137)" fill="#b9bbbe"/>
        <rect id="Rectangle_307" data-name="Rectangle 307" width="7" height="4" transform="translate(1202 146)" fill="#72767d" opacity="0.5"/>
        <rect id="Rectangle_308" data-name="Rectangle 308" width="7" height="4" transform="translate(1202 152)" fill="#fff" opacity="0.55"/>
        <rect id="Rectangle_309" data-name="Rectangle 309" width="7" height="4" transform="translate(1202 158)" fill="#72767d" opacity="0.55"/>
        <rect id="Rectangle_310" data-name="Rectangle 310" width="8" height="4" transform="translate(1211 146)" fill="#fff" opacity="0.55"/>
        <rect id="Rectangle_311" data-name="Rectangle 311" width="8" height="4" transform="translate(1211 152)" fill="#72767d" opacity="0.5"/>
        <rect id="Rectangle_312" data-name="Rectangle 312" width="8" height="4" transform="translate(1211 158)" fill="#fff" opacity="0.55"/>
        <rect id="Rectangle_313" data-name="Rectangle 313" width="7" height="4" transform="translate(1221 146)" fill="#72767d" opacity="0.55"/>
        <rect id="Rectangle_314" data-name="Rectangle 314" width="7" height="4" transform="translate(1221 152)" fill="#fff" opacity="0.5"/>
        <rect id="Rectangle_315" data-name="Rectangle 315" width="7" height="4" transform="translate(1221 158)" fill="#fff" opacity="0.5"/>
        <path id="Rectangle_316" data-name="Rectangle 316" d="M4,0H28a4,4,0,0,1,4,4V6a0,0,0,0,1,0,0H0A0,0,0,0,1,0,6V4A4,4,0,0,1,4,0Z" transform="translate(1199 137)" fill="#72767d"/>
        <line id="Line_59" data-name="Line 59" y2="4" transform="translate(1221 135.5)" fill="none" stroke="#b9bbbe" stroke-linecap="round" stroke-width="2"/>
        <line id="Line_60" data-name="Line 60" y2="4" transform="translate(1208 135.5)" fill="none" stroke="#b9bbbe" stroke-linecap="round" stroke-width="2"/>
        <g id="Group_395" data-name="Group 395" transform="translate(-92 241)">
          <circle id="Ellipse_142" data-name="Ellipse 142" cx="9" cy="9" r="9" transform="translate(1309 -88)" fill="#72767d"/>
          <path id="Path_152" data-name="Path 152" d="M1313.281-79l3,3,6.1-6.1" fill="none" stroke="#fff" stroke-linecap="round" stroke-linejoin="round" stroke-width="2"/>
        </g>
      </g>
    </g>
  </g>
</svg>
