<svg xmlns="http://www.w3.org/2000/svg" xmlns:xlink="http://www.w3.org/1999/xlink" width="40" height="40" viewBox="0 0 40 40">
  <defs>
    <clipPath id="clip-path">
      <rect id="Rectangle_305" data-name="Rectangle 305" width="40" height="40" transform="translate(839 131)" fill="none" stroke="#707070" stroke-width="1"/>
    </clipPath>
    <clipPath id="clip-path-2">
      <path id="Intersection_19" data-name="Intersection 19" d="M3,17a17,17,0,1,1,34,0Z" transform="translate(812 -50)" fill="#b9bbbe"/>
    </clipPath>
    <clipPath id="clip-icon-food-gray">
      <rect width="40" height="40"/>
    </clipPath>
  </defs>
  <g id="icon-food-gray" clip-path="url(#clip-icon-food-gray)">
    <g id="Mask_Group_115" data-name="Mask Group 115" transform="translate(-839 -131)" clip-path="url(#clip-path)">
      <g id="Group_394" data-name="Group 394">
        <g id="Group_393" data-name="Group 393" transform="translate(57 189.305)">
          <g id="Group_392" data-name="Group 392" transform="translate(3.308 -114.001) rotate(8)">
            <line id="Line_57" data-name="Line 57" y1="3" transform="translate(802 -49)" fill="none" stroke="#72767d" stroke-width="1"/>
            <line id="Line_58" data-name="Line 58" x2="4" transform="translate(800 -49)" fill="none" stroke="#72767d" stroke-width="1"/>
            <path id="Intersection_17" data-name="Intersection 17" d="M3,17a17,17,0,1,1,34,0Z" transform="translate(782 -47)" fill="#72767d"/>
            <g id="Mask_Group_114" data-name="Mask Group 114" transform="translate(-30 3)" clip-path="url(#clip-path-2)">
              <path id="Intersection_18" data-name="Intersection 18" d="M3,18C3,8.059,10.611,0,20,0S37,8.059,37,18Z" transform="translate(816 -51)" fill="#b9bbbe"/>
            </g>
            <path id="Path_148" data-name="Path 148" d="M835.124-43.385a9.754,9.754,0,0,0-4.832,5.968" transform="translate(-37)" fill="none" stroke="#fff" stroke-linecap="round" stroke-width="1"/>
          </g>
          <rect id="Rectangle_304" data-name="Rectangle 304" width="40" height="3" rx="1.5" transform="translate(782 -30)" fill="#72767d"/>
          <path id="Path_149" data-name="Path 149" d="M0,0H34L32,4H2Z" transform="translate(785 -27)" fill="#b9bbbe"/>
        </g>
        <path id="Path_150" data-name="Path 150" d="M849.145,134.32s-1.451,1.973,0,3.6a2.783,2.783,0,0,1,0,3.481" transform="translate(-4 2)" fill="none" stroke="#b9bbbe" stroke-linecap="round" stroke-linejoin="round" stroke-width="1"/>
        <path id="Path_151" data-name="Path 151" d="M849.145,134.32s-1.451,1.973,0,3.6a2.783,2.783,0,0,1,0,3.481" transform="translate(0 -1)" fill="none" stroke="#b9bbbe" stroke-linecap="round" stroke-linejoin="round" stroke-width="1"/>
      </g>
    </g>
  </g>
</svg>
